# xmcd
#
# Track frame offsets: 
#        150
#        14876
#        30651
#        48619
#        68705
#        82694
#        98660
#        115924
#        132784
#        148939
#        162600
#        179222
#        193457
#        211973
#        231261
#        249648
#        276976
#
# Disc length: 3943 seconds
#
# Revision: 0
# Processed by: cddbd v1.5.2PL0 Copyright (c) Steve Scherf et al.
# Submitted via: ExactAudioCopyFreeDBPlugin 1.0
#
DISCID=090f6511
DTITLE=Substantial - The Past is Always Present in the Future
DYEAR=2017
DGENRE=Hip-Hop
TTITLE0=Exposition
TTITLE1=Made in Maryland (feat. Steph The Sapphic Songstress and DJ Jav)
TTITLE2=No Turning Back 2.0 (feat. Uyama Hiroto)
TTITLE3=MLK (Dream Big) 2.0 (feat. See King and Matthew Shell)
TTITLE4=Follow the Master
TTITLE5=The Sub Way (feat. Precious Joubert)
TTITLE6=Party with Purpose (feat. Steph The Sapphic Songstress)
TTITLE7=Black of All Trades (V2)
TTITLE8=No Better Time (feat. Cise Starr and DJ Jav)
TTITLE9=PTXD
TTITLE10=In My Daughter's Eyes (feat. JSOUL)
TTITLE11=It Could Happen
TTITLE12=The 4our Fors (feat. Greenspan)
TTITLE13=Tony Stanza (feat. Tonedeff and Marcus D)
TTITLE14=Lasting Impression (feat. Wayna)
TTITLE15=Wish U Were Here (feat. Steph The Sapphic Songstress)
TTITLE16=Always (feat. Fjer)
EXTD=
EXTT0=
EXTT1=
EXTT2=
EXTT3=
EXTT4=
EXTT5=
EXTT6=
EXTT7=
EXTT8=
EXTT9=
EXTT10=
EXTT11=
EXTT12=
EXTT13=
EXTT14=
EXTT15=
EXTT16=
PLAYORDER=
